<svg xmlns="http://www.w3.org/2000/svg" viewBox="0 0 32 32"><title>25-Clapperboard</title><g id="_25-Clapperboard" data-name="25-Clapperboard"><path d="M27,32H5a5.006,5.006,0,0,1-5-5V5A5.006,5.006,0,0,1,5,0H27a5.006,5.006,0,0,1,5,5V27A5.006,5.006,0,0,1,27,32ZM5,2A3,3,0,0,0,2,5V27a3,3,0,0,0,3,3H27a3,3,0,0,0,3-3V5a3,3,0,0,0-3-3Z"/><path d="M31,10H1A1,1,0,0,1,1,8H31a1,1,0,0,1,0,2Z"/><path d="M4,10a1,1,0,0,1-.707-1.707l8-8a1,1,0,0,1,1.414,1.414l-8,8A1,1,0,0,1,4,10Z"/><path d="M12,10a1,1,0,0,1-.707-1.707l8-8a1,1,0,0,1,1.414,1.414l-8,8A1,1,0,0,1,12,10Z"/><path d="M20,10a1,1,0,0,1-.707-1.707l8-8a1,1,0,0,1,1.414,1.414l-8,8A1,1,0,0,1,20,10Z"/><path d="M13,23a1,1,0,0,1-1-1V16a1,1,0,0,1,1.447-.895l6,3a1,1,0,0,1,0,1.79l-6,3A1,1,0,0,1,13,23Zm1-5.382v2.764L16.764,19Z"/></g></svg>