<?xml version="1.0" encoding="UTF-8"?>
<!DOCTYPE svg PUBLIC "-//W3C//DTD SVG 1.1//EN" "http://www.w3.org/Graphics/SVG/1.1/DTD/svg11.dtd">
<!-- Creator: CorelDRAW -->
<svg xmlns="http://www.w3.org/2000/svg" xml:space="preserve" width="2048px" height="2048px" style="shape-rendering:geometricPrecision; text-rendering:geometricPrecision; image-rendering:optimizeQuality; fill-rule:evenodd; clip-rule:evenodd"
viewBox="0 0 2048 2048"
 xmlns:xlink="http://www.w3.org/1999/xlink">
 <defs>
  <style type="text/css">
   <![CDATA[
    .fil2 {fill:none}
    .fil0 {fill:#424242}
    .fil1 {fill:#FFFFFE;fill-rule:nonzero}
   ]]>
  </style>
 </defs>
 <rect class="fil0" width="2048" height="2048"/>
 <g id="Layer_x0020_1">
  <metadata id="CorelCorpID_0Corel-Layer"/>
  <path class="fil1" d="M695.044 1053.14c17.1284,6.92008 36.3898,1.03347 49.3359,-10.9878 4.79528,-4.45394 8.58662,-9.64843 10.9122,-15.2162 2.06457,-4.9441 2.95866,-10.2815 2.30197,-15.6969 -2.07874,-17.139 -19.2496,-36.6378 -60.9615,-53.4898l-29.674 -11.9882 11.9232 -29.5122 133.246 -329.794 11.9894 -29.674 29.511 11.9232c41.8843,16.9228 67.8591,14.8394 81.2776,3.94134 4.12559,-3.35079 7.1504,-7.79882 9.11812,-12.8386 2.21457,-5.67166 3.10512,-12.0886 2.74725,-18.6626 -0.957875,-17.5937 -10.6689,-35.1508 -27.6969,-42.0307l-347.342 -140.335c-17.1272,-6.9189 -36.3874,-1.0311 -49.3347,10.9913 -4.79646,4.45394 -8.58898,9.64843 -10.9134,15.2162 -2.06457,4.94292 -2.95866,10.2803 -2.30197,15.6957 2.07874,17.1366 19.2496,36.6343 60.9626,53.4874l29.6752 11.9894 -11.9244 29.511 -133.246 329.795 -11.9882 29.6752 -29.5122 -11.9244c-41.8855,-16.9228 -67.8627,-14.8406 -81.2823,-3.94134 -4.12559,3.35079 -7.15158,7.79882 -9.1193,12.8386 -2.21457,5.67166 -3.10512,12.0886 -2.74725,18.6614 0.959056,17.5925 10.6713,35.1508 27.7016,42.0307l347.342 140.335zm92.8359 35.7626c-29.5559,27.4453 -74.8879,40.3359 -116.586,23.4886l-347.342 -140.335c-41.7957,-16.8862 -65.5052,-57.7099 -67.7032,-98.0316 -0.838583,-15.4039 1.43268,-30.9071 6.99922,-45.163 5.81457,-14.8878 15.1996,-28.3914 28.3689,-39.0874 25.2579,-20.5134 63.4548,-29.8571 115.077,-16.0169l110.725 -274.054c-46.8083,-25.95 -67.8189,-59.2182 -71.7379,-91.5213 -2.02559,-16.7032 0.62126,-32.8985 6.80197,-47.6965 5.91969,-14.1768 15.0827,-26.9445 26.4142,-37.4658 29.5571,-27.4465 74.8902,-40.337 116.584,-23.4921l347.342 140.335c41.7933,16.8851 65.5016,57.7087 67.6985,98.0316 0.838583,15.4028 -1.4315,30.9059 -6.99922,45.1642 -5.81457,14.8878 -15.1984,28.3914 -28.3677,39.0874 -25.2579,20.5134 -63.4512,29.8571 -115.073,16.0169l-110.725 274.053c46.8083,25.95 67.8178,59.2193 71.7367,91.5237 2.02559,16.702 -0.62126,32.8973 -6.80197,47.6977 -5.91969,14.1744 -15.0827,26.9433 -26.413,37.4658z"/>
  <polygon class="fil1" points="787.374,733.755 1803.88,1144.45 1780.13,1203.7 763.625,793.006 "/>
  <path class="fil1" d="M255.999 1581.57l128 0 0 -109.566 0 -32.0008 32.0008 0 576 0 32.0008 0 0 32.0008 0 109.566 124.689 0 32.0008 0 0 32.0008 0 178.434 0 32.0008 -32.0008 0 -892.691 0 -32.0008 0 0 -32.0008 0 -178.434 0 -32.0008 32.0008 0zm160.001 64.0016l-128 0 0 114.432 828.689 0 0 -114.432 -124.689 0 -32.0008 0 0 -32.0008 0 -109.566 -511.999 0 0 109.566 0 32.0008 -32.0008 0z"/>
  <rect class="fil2" width="2048" height="2048"/>
 </g>
</svg>
