<svg xmlns="http://www.w3.org/2000/svg" viewBox="0 0 48 48"><defs><style>.cls-1{fill:#201602;}</style></defs><title>Asset 12ldpi</title><g id="Layer_2" data-name="Layer 2"><g id="layer_1-2" data-name="layer 1"><path class="cls-1" d="M24,41c-.45,0-.91,0-1.36-.06A17,17,0,0,1,24.25,7,17.29,17.29,0,0,1,41,24.43V28a6,6,0,0,1-12,0V14h2V28a4,4,0,0,0,8,0V24.43A15.29,15.29,0,0,0,24.22,9H24a15,15,0,0,0-1.23,30,15.07,15.07,0,0,0,10-2.76l1.16,1.62A17,17,0,0,1,24,41Z"/><path class="cls-1" d="M24,34a10,10,0,0,1,0-20,7,7,0,0,1,7,7v6A7,7,0,0,1,24,34Zm0-18a8,8,0,0,0,0,16,5,5,0,0,0,5-5V21A5,5,0,0,0,24,16Z"/><path class="cls-1" d="M37,48H11A11,11,0,0,1,0,37V11A11,11,0,0,1,11,0H37A11,11,0,0,1,48,11V37A11,11,0,0,1,37,48ZM11,2a9,9,0,0,0-9,9V37a9,9,0,0,0,9,9H37a9,9,0,0,0,9-9V11a9,9,0,0,0-9-9Z"/></g></g></svg>