<svg id="Layer_1" data-name="Layer 1" xmlns="http://www.w3.org/2000/svg" viewBox="0 0 128 128"><title>Artboard 5</title><path d="M81.615,98.614V48.628a3.745,3.745,0,0,0,1.854-.93c.041-.034.082-.07.121-.109a3.743,3.743,0,0,0,1.1-2.652v-15.7A20.479,20.479,0,0,0,64.267,8.813h-.534A20.48,20.48,0,0,0,43.309,29.236v15.7a3.737,3.737,0,0,0,1.1,2.645l.006.006a3.752,3.752,0,0,0,1.969,1.039c0,21,0,23.343,0,25.678-.007,15.972-.016,21.332-.016,27.248a17.633,17.633,0,1,0,35.151-2.021c.018-.088.034-.176.047-.264A4.668,4.668,0,0,0,81.615,98.614Zm-7.507,13.048a14.295,14.295,0,0,1-24.4-10.108c0-24.05,0-25.036,0-27.248.006-13.925.014-21.144.015-25.616h2.543V89.164a1.669,1.669,0,0,0,2.816,1.213,14.3,14.3,0,0,1,19.026,21.286ZM60.319,35.6a1.66,1.66,0,0,0-.471-1.161,5.776,5.776,0,1,1,8.377-.077,1.665,1.665,0,0,0-.549,1.238v9.337a3.739,3.739,0,0,0,1.1,2.645l.006.006a3.736,3.736,0,0,0,2.645,1.1H72.4V86.045a17.61,17.61,0,0,0-16.791.006V48.69h.967a3.76,3.76,0,0,0,3.753-3.753V35.6ZM75.734,88.393V48.69h2.543V91.2a17.7,17.7,0,0,0-1.808-2.117Q76.111,88.729,75.734,88.393ZM81.353,31.32V44.937a.412.412,0,0,1-.123.292l-.036.037a.422.422,0,0,1-.256.086H71.429a.421.421,0,0,1-.291-.117l-.006-.006a.422.422,0,0,1-.117-.292V36.23a9.119,9.119,0,1,0-14.029,0v8.707a.42.42,0,0,1-.414.414h-9.51a.422.422,0,0,1-.292-.117l-.006-.006a.422.422,0,0,1-.117-.292v-15.7A17.14,17.14,0,0,1,63.733,12.151h.534A17.14,17.14,0,0,1,81.353,29.236Z" style="fill:#231916"/><path d="M64,89.719a11.836,11.836,0,1,0,8.368,3.467A11.8,11.8,0,0,0,64,89.719Zm6.008,17.843a8.5,8.5,0,1,1,2.488-6.008A8.47,8.47,0,0,1,70.008,107.562Z" style="fill:#231916"/></svg>