<?xml version="1.0" encoding="utf-8"?>
<!-- Generator: Adobe Illustrator 19.0.1, SVG Export Plug-In . SVG Version: 6.00 Build 0)  -->
<svg version="1.1" id="housekeeping" xmlns="http://www.w3.org/2000/svg" xmlns:xlink="http://www.w3.org/1999/xlink" x="0px"
	 y="0px" viewBox="0 0 128 128" style="enable-background:new 0 0 128 128;" xml:space="preserve">
<style type="text/css">
	.st0{fill:#1E1E1E;}
	.st1{display:none;}
	.st2{display:inline;fill:#1E1E1E;}
	.st3{display:inline;}
	.st4{fill-rule:evenodd;clip-rule:evenodd;fill:#1E1E1E;}
	.st5{display:inline;fill-rule:evenodd;clip-rule:evenodd;fill:#1E1E1E;}
</style>
<g id="row3">
	<g id="mop">
		<path id="Shape_26_" class="st0" d="M81.5,66V75H48.4V66c0-1.9,1.5-3.4,3.4-3.4h4.7v-2.4c0-1.5,1.2-2.8,2.8-2.8h1.9V3.8
			c0-2.1,1.7-3.8,3.8-3.8c2.1,0,3.8,1.7,3.8,3.8v53.7h1.9c1.5,0,2.8,1.2,2.8,2.8v2.4h4.7C80,62.7,81.5,64.2,81.5,66z"/>
		<path id="Shape_27_" class="st0" d="M81.5,78.7c0,0-0.9,15.8,21.4,38.6c-2.7,2.4-6.5,4.4-10.9,6c-1.3,0.5-8.2-11.9-8.2-11.9
			s3,13.4,1.1,13.8c-4.2,0.9-11.2,2.3-15.8,2.6c-1.2,0.1-3.6-19.7-3.6-19.7S62.4,128,60.8,128c-4.2-0.1-11.4-1-15.4-1.6
			c-1.9-0.3,1.8-12.9,1.8-12.9s-7.6,11.4-9.3,10.9c-5-1.7-9.5-4.1-12.8-7.1c16.8-15.5,23.3-38.4,23.3-38.4H81.5z"/>
	</g>
	<g id="spunch" class="st1">
		<path class="st2" d="M0,45v46.6h128V45H0z M119.5,50.5c2.4,0,4.3,1.9,4.3,4.3c0,2.4-1.9,4.3-4.3,4.3s-4.3-1.9-4.3-4.3
			C115.3,52.4,117.2,50.5,119.5,50.5z M6.5,54.8c0-2.4,1.9-4.3,4.3-4.3c2.4,0,4.3,1.9,4.3,4.3c0,2.4-1.9,4.3-4.3,4.3
			C8.4,59.1,6.5,57.1,6.5,54.8z M13.1,84c-2.4,0-4.3-1.9-4.3-4.3s1.9-4.3,4.3-4.3s4.3,1.9,4.3,4.3S15.4,84,13.1,84z M26.7,72.6
			c-2.4,0-4.3-1.9-4.3-4.3c0-2.4,1.9-4.3,4.3-4.3s4.3,1.9,4.3,4.3C30.9,70.7,29,72.6,26.7,72.6z M32.2,54.8c0-3.2,2.6-5.8,5.8-5.8
			c3.2,0,5.8,2.6,5.8,5.8c0,3.2-2.6,5.8-5.8,5.8C34.8,60.6,32.2,58,32.2,54.8z M40.3,85.5c-3.2,0-5.8-2.6-5.8-5.8
			c0-3.2,2.6-5.8,5.8-5.8s5.8,2.6,5.8,5.8C46.1,82.9,43.5,85.5,40.3,85.5z M51.6,72.6c-2.4,0-4.3-1.9-4.3-4.3c0-2.4,1.9-4.3,4.3-4.3
			s4.3,1.9,4.3,4.3C55.9,70.7,53.9,72.6,51.6,72.6z M57.1,54.8c0-3.2,2.6-5.8,5.8-5.8c3.2,0,5.8,2.6,5.8,5.8c0,3.2-2.6,5.8-5.8,5.8
			C59.7,60.6,57.1,58,57.1,54.8z M69.7,85.5c-3.2,0-5.8-2.6-5.8-5.8c0-3.2,2.6-5.8,5.8-5.8c3.2,0,5.8,2.6,5.8,5.8
			C75.5,82.9,72.9,85.5,69.7,85.5z M81,70.4c-2.4,0-4.3-1.9-4.3-4.3c0-2.4,1.9-4.3,4.3-4.3s4.3,1.9,4.3,4.3
			C85.3,68.5,83.4,70.4,81,70.4z M85.8,54.8c0-2.4,1.9-4.3,4.3-4.3s4.3,1.9,4.3,4.3c0,2.4-1.9,4.3-4.3,4.3S85.8,57.1,85.8,54.8z
			 M94.6,85.5c-3.2,0-5.8-2.6-5.8-5.8c0-3.2,2.6-5.8,5.8-5.8c3.2,0,5.8,2.6,5.8,5.8C100.4,82.9,97.8,85.5,94.6,85.5z M108.2,72.6
			c-2.4,0-4.3-1.9-4.3-4.3c0-2.4,1.9-4.3,4.3-4.3s4.3,1.9,4.3,4.3C112.5,70.7,110.6,72.6,108.2,72.6z M119.5,85.5
			c-3.2,0-5.8-2.6-5.8-5.8c0-3.2,2.6-5.8,5.8-5.8c3.2,0,5.8,2.6,5.8,5.8C125.4,82.9,122.8,85.5,119.5,85.5z"/>
		<path id="Shape_36_" class="st2" d="M119.5,36.5c-3.6,0-6.7,2.3-7.9,5.4c-1.2-3.2-4.3-5.4-7.9-5.4s-6.7,2.3-7.9,5.4
			c-1.2-3.2-4.3-5.4-7.9-5.4s-6.7,2.3-7.9,5.4c-1.2-3.2-4.3-5.4-7.9-5.4c-3.6,0-6.7,2.3-7.9,5.4c-1.2-3.2-4.3-5.4-7.9-5.4
			c-3.6,0-6.7,2.3-7.9,5.4c-1.2-3.2-4.3-5.4-7.9-5.4s-6.7,2.3-7.9,5.4c-1.2-3.2-4.3-5.4-7.9-5.4s-6.7,2.3-7.9,5.4
			c-1.2-3.2-4.3-5.4-7.9-5.4C3.8,36.5,0,40.3,0,45h128C128,40.3,124.2,36.5,119.5,36.5z"/>
	</g>
	<g id="towels" class="st1">
		<path id="Shape_23_" class="st2" d="M77.1,79.3H16.2c-3.9,0-7.4,1.6-10,4.1c-2.6,2.5-4.2,6-4.2,9.9c0,7.7,6.4,14,14.1,14H75
			c0,0-6.9-7-7.1-14C67.7,86.3,77.1,79.3,77.1,79.3z M14.7,100.3c0-1.9,1.5-3.4,3.4-3.4c1.9,0,3.4,1.5,3.4,3.4
			c0,1.9-1.5,3.4-3.4,3.4C16.3,103.7,14.7,102.2,14.7,100.3z M62.9,94.1c0,1.9-1.5,3.4-3.4,3.4S56,96,56,94.1c0-1.9,1.5-3.4,3.4-3.4
			S62.9,92.2,62.9,94.1z M47.1,90.1c-1.9,0-3.4-1.5-3.4-3.4c0-1.9,1.5-3.4,3.4-3.4c1.9,0,3.4,1.5,3.4,3.4
			C50.5,88.6,49,90.1,47.1,90.1z M50.5,99.1c0,1.9-1.5,3.4-3.4,3.4c-1.9,0-3.4-1.5-3.4-3.4c0-1.9,1.5-3.4,3.4-3.4
			C49,95.7,50.5,97.2,50.5,99.1z M36.1,92c0,1.9-1.5,3.4-3.4,3.4s-3.4-1.5-3.4-3.4c0-1.9,1.5-3.4,3.4-3.4S36.1,90.1,36.1,92z
			 M21.6,85.9c0,1.9-1.5,3.4-3.4,3.4c-1.9,0-3.4-1.5-3.4-3.4c0-1.9,1.5-3.5,3.4-3.5C20.1,82.4,21.6,84,21.6,85.9z M68.3,50.4H28.1
			c-7.8,0-14.1,6.3-14.1,14c0,3.8,1.6,7.3,4.2,9.9c2.6,2.5,6.1,4.1,10,4.1h38.2c0,0-6.8-7-7.1-14C59,57.4,68.3,50.4,68.3,50.4z
			 M26.4,74.8c-1.9,0-3.4-1.5-3.4-3.4c0-1.9,1.5-3.4,3.4-3.4c1.9,0,3.4,1.5,3.4,3.4C29.9,73.3,28.3,74.8,26.4,74.8z M53.3,68
			c1.9,0,3.4,1.5,3.4,3.4c0,1.9-1.5,3.4-3.4,3.4s-3.4-1.5-3.4-3.4C49.8,69.5,51.4,68,53.3,68z M47.8,56.9c0-1.9,1.5-3.4,3.4-3.4
			s3.4,1.5,3.4,3.4c0,1.9-1.5,3.4-3.4,3.4S47.8,58.8,47.8,56.9z M44.3,65.2c0,1.9-1.5,3.4-3.4,3.4s-3.4-1.5-3.4-3.4
			c0-1.9,1.5-3.4,3.4-3.4S44.3,63.3,44.3,65.2z M34,56.9c0,1.9-1.5,3.4-3.4,3.4c-1.9,0-3.4-1.5-3.4-3.4c0-1.9,1.5-3.4,3.4-3.4
			C32.5,53.5,34,55,34,56.9z M59,21.5H39.4c-7.8,0-14.1,6.3-14.1,14c0,3.8,1.6,7.4,4.2,9.9c2.6,2.5,6.1,4.1,10,4.1h17.5
			c0,0-6.8-7-7.1-14C49.7,28.5,59,21.5,59,21.5z M29.2,34.2c0-1.9,1.5-3.4,3.4-3.4s3.4,1.5,3.4,3.4s-1.5,3.4-3.4,3.4
			S29.2,36.1,29.2,34.2z M43,24.6c1.9,0,3.4,1.5,3.4,3.4c0,1.9-1.5,3.4-3.4,3.4c-1.9,0-3.4-1.5-3.4-3.4C39.5,26.1,41.1,24.6,43,24.6
			z M43,39.1c1.9,0,3.4,1.5,3.4,3.4s-1.5,3.4-3.4,3.4c-1.9,0-3.4-1.5-3.4-3.4S41.1,39.1,43,39.1z"/>
		<path id="Shape_22_" class="st2" d="M70.6,92.9c0-6.8,5.4-12.4,11.9-12.4h36.3c2.8,0,5.1,2.4,5.1,5.3c0,3-2.3,5.3-5.1,5.3H82.6
			v4.1h36.2c5.1,0,9.2-4.3,9.2-9.5c0-5.2-4.1-9.5-9.2-9.5H73.7c-6.6,0-11.9-5.5-11.9-12.4c0-6.8,5.3-12.3,11.9-12.3l36.3-0.1
			c2.8,0,5.1,2.4,5.1,5.4c0,3-2.3,5.4-5.1,5.4H73.8v4.1H110c5.1,0,9.2-4.3,9.2-9.5c0-5.2-4.1-9.5-9.2-9.5l-45.6,0v0
			c-6.6,0-11.9-5.5-11.9-12.4s5.3-12.4,11.9-12.4h36.3c2.8,0,5.1,2.4,5.1,5.4c0,3-2.3,5.4-5.1,5.4H64.5v4.1h36.2
			c5.1,0,9.2-4.3,9.2-9.6s-4.1-9.5-9.2-9.5H40.1c-9.3,0-16.9,7.8-16.9,17.4c0,4.8,2,8.8,5.3,11.6c-9.2,0.2-16.6,7.9-16.6,17.4
			c0,4.7,1.9,8.7,5.2,11.5h-0.2C7.6,76.4,0,84.2,0,93.8c0,9.1,7.2,15.6,17.1,15.6h108.7v-4.1H82.5C75.9,105.3,70.6,99.7,70.6,92.9z
			 M17.1,105.3c-6.2,0-13-3.6-13-11.5c0-7.3,5.7-13.3,12.8-13.3h55c-3.3,3-5.4,7.4-5.4,12.4c0,4.9,2.1,9.4,5.4,12.4H17.1z
			 M53.8,22.7c-3.3,3-5.4,7.5-5.4,12.4c0,4.9,2.1,9.3,5.4,12.4H40.3c-6.2,0-13-3.6-13-11.5c0-7.3,5.7-13.3,12.8-13.3H53.8z
			 M63.1,51.7c-3.3,3-5.4,7.4-5.4,12.3c0,4.9,2.1,9.3,5.4,12.4H29c-6.2,0-13-3.6-13-11.5c0-7.3,5.7-13.2,12.8-13.2H63.1z"/>
	</g>
	<g id="house" class="st1">
		<path id="Shape_31_" class="st2" d="M103.2,72.2c-0.9,0-1.8-0.4-2.5-1.1L52.7,23.2L6.1,69.8c-1.4,1.4-3.7,1.4-5.1,0
			c-1.4-1.4-1.4-3.7,0-5.1L52.7,13l53,53c1.4,1.4,1.4,3.7,0,5.1C105,71.8,104.1,72.2,103.2,72.2z M86.1,74.9H61.4v20.3h24.7V74.9z
			 M75.6,78.4h7v13.1h-7V78.4z M65,78.4h7v13.1h-7V78.4z M44.9,74.9H20.2v20.3h24.7V74.9z M34.3,78.4h7v13.1h-7V78.4z M23.8,78.4h7
			v13.1h-7V78.4z"/>
		<path id="Shape_30_" class="st2" d="M52.7,27.7L11.3,68.8V115h82.8V68.8L52.7,27.7z M46.9,97.1H18.2V72.9h28.6V97.1z M88.1,97.2
			H59.5V72.9h28.6V97.2z M103.6,34.5l-8.1-2.9l-8.4,1.9l2.9-8.1L88.1,17l8.1,2.9l8.4-1.9l-2.9,8.1L103.6,34.5z M122.3,44.3l-0.7-9.4
			l-7.5,5.7l-9.4,0.7l5.7,7.5l0.7,9.4l7.5-5.7l9.4-0.7L122.3,44.3z M124.1,21.5l2.7-5.7l-6.2,0.8l-5.7-2.7l0.8,6.2l-2.7,5.7l6.2-0.8
			l5.7,2.7L124.1,21.5z"/>
	</g>
	<g id="vacuum_cleaner_1_" class="st1">
		<path id="Shape_18_" class="st2" d="M102.7,128c-8.3,0-15-6.7-15-15c0-8.3,6.7-15,15-15s15,6.7,15,15
			C117.8,121.3,111,128,102.7,128z M102.7,103.5c-5.2,0-9.5,4.3-9.5,9.5c0,5.2,4.3,9.5,9.5,9.5s9.5-4.3,9.5-9.5
			C112.3,107.7,108,103.5,102.7,103.5z M63.6,118.5v9.1H10.2v-9.1c0-1.9,1.5-3.5,3.5-3.5h13.6c0.1-3,2.5-5.3,5.5-5.3h8.3
			c3,0,5.4,2.4,5.5,5.3h13.6C62,115,63.6,116.6,63.6,118.5z M60,8.6c9.3-4.6,19.7-4,27.2,1.6c7.7,5.8,9.3,16,9.3,28.9l5.4,1
			c0-14.5-2-27.3-11.5-34.3c-9.2-6.9-21.8-7.7-33-2.1c-16.1,8-23.4,26.7-23.4,51.3h5.5C39.7,32.6,45.9,15.7,60,8.6z"/>
		<path id="Shape_19_" class="st2" d="M105.9,48.6v46.5c-1-0.2-2.1-0.3-3.2-0.3c-10,0-18.2,8.1-18.2,18.2c0,3.6,1.1,7,2.9,9.9
			c-26.8,0-26.3-74.3,8.1-74.3L105.9,48.6z M102.7,119.5c3.6,0,6.5-2.9,6.5-6.5c0-3.6-2.9-6.5-6.5-6.5c-3.6,0-6.5,2.9-6.5,6.5
			C96.2,116.6,99.1,119.5,102.7,119.5z M105.9,44.8l0-1.4c0-3-2.5-5.5-5.5-5.5l-2.2,0c-3,0-5.5,2.5-5.5,5.5l0,1.8L105.9,44.8z
			 M40.6,109.7h-7.3V57.4h7.3V109.7z"/>
	</g>
</g>
<g id="row2">
	<g id="bucket" class="st1">
		<path class="st2" d="M5.6,34.2c10.3,4.6,31.5,4.8,34.5,4.8c3.1,0,24.3-0.2,34.5-4.7c-1.8,14-16.6,25-34.5,25
			C22.2,59.2,7.4,48.2,5.6,34.2z"/>
		<path class="st2" d="M77.3,39.2l-5.8,36l-3.1,19.3c-0.6,3.1-11.1,7.8-23.1,8.9c-1.7,0.2-3.5,0.3-5.2,0.3s-3.5-0.1-5.2-0.3
			c-12-1.2-22.6-6-23.1-8.9l0-0.3l-8.8-55c3.9,13.4,19.1,23.4,37.2,23.4C58.2,62.6,73.3,52.6,77.3,39.2z"/>
		<g id="Shape_16_" class="st3">
			<path class="st0" d="M40.1,18.9C36,18.9,0,19.2,0,29.3c0,1.4,0.7,2.6,1.9,3.7c0,0,8,6.4,38.2,6.4c30.2,0,38.2-6.3,38.2-6.3
				c1.3-1,2-2.3,2-3.7C80.2,19.2,44.2,18.9,40.1,18.9z M40.1,34.5c-20.7,0-32.4-3.3-34.7-5.2c2.3-2,14-5.2,34.7-5.2
				s32.4,3.3,34.7,5.2C72.5,31.3,60.8,34.5,40.1,34.5z M77.3,39.2 M2.9,39.2 M89.3,88c1.4-1.1,2.2-2.4,2.2-3.7
				c0-4.3-8.4-7.9-20.1-9.1c0,0-0.1,0-0.1,0l-3,18.9c-0.6,3.2-11.1,8.1-23.1,9.3c-1.7,0.2-3.5,0.3-5.2,0.3s-3.5-0.1-5.2-0.3
				c-12-1.2-22.5-6.2-23.1-9.3c0,0,0,0.1-0.1,0.1c-1,1.1-1.6,2.3-1.6,3.5c0,6.3,13.9,11.4,31,11.4c13.4,0,24.8-3.1,29.2-7.5
				c5.3,0.5,11.3,0.7,17.7,0.7c22.1,0,40-3.2,40-7.2C128,91.3,110.8,88.1,89.3,88z"/>
		</g>
	</g>
	<g id="spray-bottle" class="st1">
		<g id="Shape_14_" class="st3">
			<path class="st4" d="M95.8,0v11.7h5.8V0H95.8z M76.1,45V23.8h-3.5v-2.3l15.6-9.7h3.9V0H43.4L27.9,19.5v7.8l13.6-9.7l4.7,6.2h-2.3
				V45c-5.5,4.2-17.5,14.2-17.5,21.2V128h67.3V68.1C93.6,60.2,81,49,76.1,45z M86.7,121H33.3V66.1c0-2.5,7.7-10.4,16.1-16.7l1.4-1
				V30.7h18.3v17.7l1.3,1c7.8,6.2,16.2,15.2,16.2,18.7V121z"/>
		</g>
		<path id="Shape_15_" class="st5" d="M71.7,79.3C66.3,82,61,91.7,55.5,93.7c-11.7,4.2-18.1-5.4-18.1-5.4v28.9h45.1V81.1
			C82.6,81.1,76.9,76.7,71.7,79.3z M78.1,116.7h-3.9V85.6h3.9V116.7z M89,14.6l-11.6,7.8l15.5,19.5h5.8L89,14.6z"/>
	</g>
	<g id="rake" class="st1">
		<g id="Shape_13_" class="st3">
			<path class="st0" d="M64,103.6c-3.1,0-5.6-2.5-5.6-5.6V5.6C58.4,2.5,60.9,0,64,0c3.1,0,5.6,2.5,5.6,5.6V98
				C69.6,101.1,67.1,103.6,64,103.6z"/>
		</g>
		<polygon id="Shape_12_" class="st5" points="112.5,98 112.5,128 109.5,128 109.5,113.8 105,113.8 105,128 101.6,128 101.6,113.8 
			97.1,113.8 97.1,128 93.7,128 93.7,113.8 89.3,113.8 89.3,128 85.9,128 85.9,113.8 81.4,113.8 81.4,128 78,128 78,113.8 
			73.5,113.8 73.5,128 70.2,128 70.2,113.8 65.7,113.8 65.7,128 62.3,128 62.3,113.8 57.8,113.8 57.8,128 54.5,128 54.5,113.8 
			50,113.8 50,128 46.6,128 46.6,113.8 42.1,113.8 42.1,128 38.7,128 38.7,113.8 34.3,113.8 34.3,128 30.9,128 30.9,113.8 
			26.4,113.8 26.4,128 23,128 23,113.8 18.5,113.8 18.5,128 15.5,128 15.5,98 		"/>
	</g>
	<g id="Peg" class="st1">
		<g id="Shape_11_" class="st3">
			<path class="st0" d="M75.7,55.1l9.6-9.6c1.3,2.7,0.9,6-1.3,8.2C81.7,55.9,78.4,56.4,75.7,55.1z M88.5,42.3L87,43.8
				c2.2,3.6,1.7,8.4-1.4,11.5c-3.1,3.1-7.9,3.6-11.5,1.4l-20,20c1.7,2.6-0.3,8-4.8,12.5c-4.5,4.5-9.9,6.5-12.5,4.8l-4.1,4.1l2,29.8
				l36-36c0,0-3.5-7,2.3-12.8c5.8-5.9,12.5-2,12.5-2L128,34.6L88.5,42.3z M46.8,56.7C41.5,60.1,36,57.4,36,57.4l-36,36l29.8,2
				l4.1-4.1c-1.7-2.6,0.3-8,4.8-12.5c4.5-4.5,9.9-6.5,12.5-4.8l17.2-17.2H46.8z M50.9,42.5c0,0,1.2,2.1,1.2,5h17.4
				c0.2-2,1.1-4,2.7-5.6c3.3-3.3,8.4-3.6,12.1-1.1l1.4-1.4L93.4,0L50.9,42.5z"/>
		</g>
		<path id="Shape_10_" class="st2" d="M84,53.7c-2.2,2.2-5.6,2.7-8.2,1.4c-0.3-0.2-0.6-0.3-0.9-0.5c-8.1,0.1-18.1,0.2-25.8,0.4
			c-1.6,0-3,0-4.4,0.1C42,55,39.9,55,38.4,55l5.2-5.1c0.3,0,0.7,0,1,0c2.2,0,4.7-0.1,7.2-0.1c7.1-0.1,15-0.2,20-0.2
			c-0.3-2.1,0.4-4.3,2-6c2.8-2.8,7.3-2.8,10.1,0c0.6,0.6,1,1.2,1.3,1.9C86.6,48.2,86.2,51.5,84,53.7z"/>
	</g>
	<g id="iron" class="st1">
		<g id="Shape_29_" class="st3">
			<path class="st0" d="M122.7,85.4H6.7c0-9,23-22.6,55.4-22.6c1.5,0,39.2,0,39.2,0l-6.4-19.7H47.7c-2.3,0-4.2-1.9-4.2-4.2V37
				c0-2.3,1.9-4.2,4.2-4.2h60.1l2.3,7.6h5.1l4.1,13.8h-5.1C114.2,54.2,122.7,83.3,122.7,85.4z"/>
		</g>
		<path id="Shape_28_" class="st2" d="M125.1,95.2H2.9c-1.6,0-2.9-1.3-2.9-2.9c0-1.6,1.3-2.9,2.9-2.9h122.3c1.6,0,2.9,1.3,2.9,2.9
			C128,93.9,126.7,95.2,125.1,95.2z M86.6,60H62.1c-1.6,0-2.9-1.3-2.9-2.9s1.3-2.9,2.9-2.9h24.5c1.6,0,2.9,1.3,2.9,2.9
			S88.2,60,86.6,60z"/>
	</g>
</g>
<g id="row1_1_">
	<g id="Sewing_x5F_Needle" class="st1">
		<path class="st2" d="M46.5,77H10.8c-1,0-1.8-0.8-1.8-1.8s0.8-1.8,1.8-1.8h35.7c1,0,1.8,0.8,1.8,1.8S47.5,77,46.5,77z M46.5,69.6
			H10.8c-1,0-1.8-0.8-1.8-1.8c0-1,0.8-1.8,1.8-1.8h35.7c1,0,1.8,0.8,1.8,1.8C48.4,68.7,47.5,69.6,46.5,69.6z M46.5,62.1H10.8
			c-1,0-1.8-0.8-1.8-1.8c0-1,0.8-1.8,1.8-1.8h35.7c1,0,1.8,0.8,1.8,1.8C48.4,61.3,47.5,62.1,46.5,62.1z M46.5,54.7H10.8
			c-1,0-1.8-0.8-1.8-1.8S9.8,51,10.8,51h35.7c1,0,1.8,0.8,1.8,1.8S47.5,54.7,46.5,54.7z M127.9,35.9c-0.2-1.4-0.9-2.4-1.9-3.1
			c-3.6-2.3-9.5,1.1-13.5,5.7c-3.2,3.6-4.8,7.4-4.4,10.3c0,0,0,0,0,0c-7,8-39.6,45.7-37.4,47.2c2.2,1.4,33.8-34.3,41.8-43.4h0.1
			c3.4,0,7.7-2.9,10.8-6.4C126.7,42.6,128.3,38.7,127.9,35.9z M120.8,43.7c-3.8,4.4-7.8,5.6-8.7,5c0,0-0.2-0.1-0.2-0.5
			c-0.2-1.4,0.8-4.3,3.5-7.3c3.2-3.7,6.5-5.2,8-5.2c0.3,0,0.5,0.1,0.6,0.1c0,0,0.2,0.1,0.2,0.5c0,0.1,0,0.2,0,0.3
			C124.3,38.2,123.2,40.9,120.8,43.7z"/>
		<path class="st2" d="M9.7,80.1h37.9l9.7,10H0L9.7,80.1z M57.3,37.6H0l9.7,10h37.9L57.3,37.6z"/>
	</g>
	<g id="dish_x5F_cleaning" class="st1">
		<path id="Shape_9_" class="st2" d="M38.2,111.1C17.2,111.1,0,94,0,72.9s17.2-38.2,38.2-38.2s38.2,17.2,38.2,38.2
			S59.3,111.1,38.2,111.1z M38.2,39.4c-18.4,0-33.5,15-33.5,33.5s15,33.5,33.5,33.5s33.5-15,33.5-33.5S56.7,39.4,38.2,39.4z
			 M38.2,100.3c15.1,0,27.4-12.3,27.4-27.4S53.4,45.5,38.2,45.5S10.9,57.8,10.9,72.9S23.1,100.3,38.2,100.3z M65.3,25.9l-4.7-0.5
			l-4.3,2.1l0.5-4.7l-2.1-4.3l4.7,0.5l4.3-2.1l-0.5,4.7L65.3,25.9z M69.1,39.8l0.2-2.1l-1.9,1l-2.1-0.2l1,1.9l-0.2,2.1l1.9-1
			l2.1,0.2L69.1,39.8z M92.9,40.1l1-3l-3,0.7l-3-1l0.7,3l-1,3l3-0.7l3,1L92.9,40.1z M80.9,28l-1.1-3.4l-2.2,2.8l-3.4,1.1l2.8,2.2
			l1.1,3.4l2.2-2.8l3.4-1.1L80.9,28z M121.5,104.6h-19.7v-4.8h7.4V79.7h4.8v20.1h7.4V104.6z M128,49.6H95.3v-4.8H128V49.6z"/>
		<path id="Shape_7_" class="st2" d="M111.7,81.7L111.7,81.7c-9,0-16.3-7.3-16.3-16.3v-13H128v13C128,74.3,120.7,81.7,111.7,81.7z
			 M38.2,96.5c13.1,0,23.6-10.6,23.6-23.6S51.3,49.3,38.2,49.3S14.6,59.8,14.6,72.9S25.2,96.5,38.2,96.5z"/>
	</g>
	<g id="dustpan" class="st1">
		<path id="Shape_5_" class="st2" d="M119.7,128H8.1c0-36.1,25-65.5,55.8-65.5S119.7,91.8,119.7,128z"/>
		<path id="Shape_4_" class="st2" d="M119.9,128h-3.4C114.6,88.3,93.6,65.3,64,65.3c-29.6,0-50.6,22.9-52.5,62.6H8.1
			c0-37.9,20.3-69.3,46.9-75.2V9.1c0-5,4.1-9.1,9-9.1h0c5,0,9,4.1,9,9.1v43.7C99.7,58.6,119.9,90.1,119.9,128z"/>
	</g>
	<g id="wiper" class="st1">
		<path id="Shape_3_" class="st2" d="M128,33.8v4.6c0,1.3-1,2.3-2.4,2.3H82.2L72.8,56c-0.4,0.7-0.5,1.5-0.5,2.3v45.4
			c0,1.5-1.2,2.8-2.7,2.8H58.4c-1.5,0-2.7-1.2-2.7-2.8V58.4c0-0.8-0.2-1.6-0.5-2.3l-9.4-15.3H2.4C1,40.8,0,39.7,0,38.4v-4.6
			c0-1.3,1-2.3,2.4-2.3h123.3C127,31.5,128,32.5,128,33.8z"/>
		<path id="Shape_2_" class="st2" d="M125.3,27.5H2.7c-0.6,0-1-0.4-1-1v-4c0-0.6,0.4-1,1-1h122.6c0.6,0,1,0.4,1,1v4
			C126.3,27,125.8,27.5,125.3,27.5z"/>
	</g>
	<g id="laundary_x5F_detergent" class="st1">
		<path id="Shape_1_" class="st2" d="M70.4,23.8c-2.5,0-4.9,0.9-6.8,2.6L24.5,59.6c-2.7,2.4-4.2,5.8-4.2,9.4v51
			c0,4.4,3.5,7.9,7.9,7.9h71.6c4.4,0,7.9-3.5,7.9-7.9V23.8H70.4z M63.8,67.2c0,1.2-1,2.2-2.2,2.2l-25.2,0.9c-2.1,0.1-3.2-2.6-1.6-4
			l30.5-27.5c1.5-1.3,3.8-0.2,3.8,1.7L63.8,67.2z"/>
		<path id="Shape" class="st2" d="M106.2,19.4H70.6c-0.8,0-1.5-0.7-1.5-1.5V1.5c0-0.8,0.7-1.5,1.5-1.5h35.6c0.8,0,1.5,0.7,1.5,1.5
			v16.4C107.7,18.8,107,19.4,106.2,19.4z"/>
	</g>
</g>
</svg>
