<?xml version="1.0" encoding="utf-8"?>
<!-- Generator: Adobe Illustrator 16.0.0, SVG Export Plug-In . SVG Version: 6.00 Build 0)  -->
<!DOCTYPE svg PUBLIC "-//W3C//DTD SVG 1.0//EN" "http://www.w3.org/TR/2001/REC-SVG-20010904/DTD/svg10.dtd">
<svg version="1.0" id="Layer_1" xmlns="http://www.w3.org/2000/svg" xmlns:xlink="http://www.w3.org/1999/xlink" x="0px" y="0px"
	 width="100px" height="100px" viewBox="0 0 100 100" enable-background="new 0 0 100 100" xml:space="preserve">
<path d="M23.333,70C15.97,70,10,64.03,10,56.667c0-7.364,5.97-13.333,13.333-13.333h20V50h-20c-3.682,0-6.666,2.984-6.666,6.667
	c0,3.682,2.984,6.666,6.666,6.666h53.334C84.03,63.333,90,69.304,90,76.667S84.03,90,76.667,90H10v-6.667h66.667
	c3.682,0,6.666-2.984,6.666-6.666S80.349,70,76.667,70H23.333z"/>
<path d="M88.047,11.953c-2.604-2.604-6.823-2.604-9.427,0L50,40.573L50.003,50h9.428l28.616-28.62
	C90.651,18.776,90.651,14.557,88.047,11.953z"/>
</svg>
