<?xml version="1.0" encoding="utf-8"?>
<!-- Generator: Adobe Illustrator 16.0.0, SVG Export Plug-In . SVG Version: 6.00 Build 0)  -->
<!DOCTYPE svg PUBLIC "-//W3C//DTD SVG 1.0//EN" "http://www.w3.org/TR/2001/REC-SVG-20010904/DTD/svg10.dtd">
<svg version="1.0" id="Layer_1" xmlns="http://www.w3.org/2000/svg" xmlns:xlink="http://www.w3.org/1999/xlink" x="0px" y="0px"
	 width="100px" height="100px" viewBox="0 0 100 100" enable-background="new 0 0 100 100" xml:space="preserve">
<path d="M50,90c22.093,0,40-17.91,40-40S72.093,10,50,10c-22.09,0-40,17.91-40,40c0,11.106,4.58,21.094,11.892,28.333H10V85h20
	c1.843,0,3.333-1.497,3.333-3.333v-20h-6.66l-0.006,12.044c-6.146-6.042-10-14.407-10-23.711c0-18.411,14.925-33.333,33.333-33.333
	c18.411,0,33.333,14.922,33.333,33.333S68.411,83.333,50,83.333V90z"/>
<path d="M65,50c0,8.288-6.712,15-15,15c-8.281,0-15-6.712-15-15c0-8.281,6.719-15,15-15C58.288,35,65,41.719,65,50z"/>
</svg>
